<?xml version="1.0" standalone="no"?>
<!DOCTYPE svg PUBLIC "-//W3C//DTD SVG 20010904//EN"
 "http://www.w3.org/TR/2001/REC-SVG-20010904/DTD/svg10.dtd">
<svg version="1.0" xmlns="http://www.w3.org/2000/svg"
 width="26pt" height="26pt" viewBox="0 0 344.000000 344.000000"
 preserveAspectRatio="xMidYMid meet">

<g transform="translate(0.000000,344.000000) scale(0.100000,-0.100000)"
fill="#FF2A43" stroke="none">
<path d="M790 3001 c-52 -16 -107 -51 -141 -88 -26 -28 -90 -168 -258 -558
-124 -286 -231 -542 -238 -570 -16 -60 -18 -342 -2 -414 16 -78 73 -150 148
-188 l63 -33 490 0 490 0 -5 -22 c-33 -132 -137 -634 -137 -660 0 -84 27 -136
120 -232 l89 -91 486 485 c396 395 491 495 513 540 l27 55 0 780 0 780 -24 53
c-31 69 -106 137 -174 157 -43 13 -152 15 -736 14 -377 0 -697 -4 -711 -8z"/>
<path d="M2720 2150 l0 -860 290 0 290 0 0 860 0 860 -290 0 -290 0 0 -860z"/>
</g>
</svg>
