<?xml version="1.0" standalone="no"?>
<!DOCTYPE svg PUBLIC "-//W3C//DTD SVG 20010904//EN"
 "http://www.w3.org/TR/2001/REC-SVG-20010904/DTD/svg10.dtd">

<svg version="1.0" xmlns="http://www.w3.org/2000/svg"  width="26pt" height="26pt" viewBox="0 0 344.000000 344.000000"
 preserveAspectRatio="xMidYMid meet" >
<g transform="translate(0.000000,344.000000) scale(0.100000,-0.100000)" fill="#000000" stroke="none">
	<path d="M1905.6,917.7c266,270,491.1,503.9,500,521.9c8.9,18,20.8,55.1,26.7,83.1l10.8,50l429,1.6l429,1.6l-3.3,860l-3.3,860
		l-453-1.7c-416-2.6-456-3.7-506.9-20.9c-50.9-18.2-55.9-18.2-85-3.3c-27.1,14.9-99.1,16.6-730.1,17.2c-806-0.1-771,3.1-860.7-86.3
		c-48.8-48.2-58.7-70.2-271.8-571C265.2,2343.4,159.2,2087,152.3,2059c-15.8-60.1-16.7-342.1-0.4-414
		c16.3-77.9,73.6-149.7,148.7-187.4l63.1-32.8l490,1.9l490,1.9l-4.9-23c-32.5-131.1-134.6-633.5-134.5-659.5
		c0.3-83,27.5-135.9,117.9-228.6c47.2-48.8,89.3-88.7,92.3-88.6C1417.5,428.8,1638.7,648.7,1905.6,917.7z M1539.4,976.3
		c16.7,71.1,151.3,710.6,151.2,720.6c0,10-124,12.5-630,10.6l-630-2.4l-0.5,144l-0.5,144l212.1,499.8l211.1,498.8l647,5.5l646,4.5
		l2.7-712l2.7-713l-301.8-307.2c-165.4-168.6-303.8-308.2-307.8-308.2C1538.5,960.3,1537.5,967.3,1539.4,976.3z M2437.9,2432.7
		l-2.2,570l285,1.1l285,1.1l2.2-570l2.2-570l-285-1.1l-285-1.1L2437.9,2432.7z"/>
</g>
</svg>
