<?xml version="1.0" standalone="no"?>
<!DOCTYPE svg PUBLIC "-//W3C//DTD SVG 20010904//EN"
 "http://www.w3.org/TR/2001/REC-SVG-20010904/DTD/svg10.dtd">
<svg version="1.0" xmlns="http://www.w3.org/2000/svg"
 width="26pt" height="26pt" viewBox="0 0 344.000000 344.000000"
 preserveAspectRatio="xMidYMid meet">

<g transform="translate(0.000000,344.000000) scale(0.100000,-0.100000)"
fill="#13B56A" stroke="none">
<path d="M1534 2798 c-430 -431 -494 -499 -510 -543 -18 -47 -19 -91 -19 -825
l0 -775 24 -53 c32 -70 107 -137 176 -157 45 -13 149 -15 751 -13 l699 3 51
27 c95 50 102 62 343 623 124 286 231 542 238 570 16 60 18 342 2 414 -16 78
-73 150 -148 188 l-63 33 -490 0 -490 0 5 23 c33 131 137 633 137 659 0 83
-27 136 -117 229 -47 49 -89 89 -92 89 -4 0 -227 -222 -497 -492z"/>
<path d="M140 1290 l0 -860 290 0 290 0 0 860 0 860 -290 0 -290 0 0 -860z"/>
</g>
</svg>
