<?xml version="1.0" standalone="no"?>
<!DOCTYPE svg PUBLIC "-//W3C//DTD SVG 20010904//EN"
 "http://www.w3.org/TR/2001/REC-SVG-20010904/DTD/svg10.dtd">
<svg version="1.0" xmlns="http://www.w3.org/2000/svg"
 width="26pt" height="26pt" viewBox="0 0 344.000000 344.000000"
 preserveAspectRatio="xMidYMid meet">

<g transform="translate(0.000000,344.000000) scale(0.100000,-0.100000)"
fill="#000000" stroke="none">
<path d="M1538 2803 c-267 -269 -493 -502 -502 -520 -9 -18 -21 -55 -27 -83
l-11 -50 -429 0 -429 0 0 -860 0 -860 453 0 c416 1 456 2 507 19 51 18 56 18
85 3 27 -15 99 -17 730 -20 806 -3 771 -6 861 83 49 48 59 70 274 570 123 286
230 542 237 570 16 60 18 342 2 414 -16 78 -73 150 -148 188 l-63 33 -490 0
-490 0 5 23 c33 131 137 633 137 659 0 83 -27 136 -117 229 -47 49 -89 89 -92
89 -3 0 -225 -219 -493 -487z m366 -60 c-17 -71 -154 -710 -154 -720 0 -10
124 -13 630 -13 l630 0 0 -144 0 -144 -214 -499 -213 -498 -647 -3 -646 -2 0
712 0 713 303 306 c166 168 305 307 309 307 3 1 4 -6 2 -15z m-904 -1453 l0
-570 -285 0 -285 0 0 570 0 570 285 0 285 0 0 -570z"/>
</g>
</svg>
